<svg xmlns="http://www.w3.org/2000/svg" viewBox="0 0 1320 470" width="500" height="178"><title>EXSquared - Orange-svg</title><defs><clipPath clipPathUnits="userSpaceOnUse" id="cp1"><path d="m0 0.64h1320v468.6h-1320z"></path></clipPath></defs><style>		.s0 { fill: #c42704 } 	</style><g id="Clip-Path" clip-path="url(#cp1)"><g><path fill-rule="evenodd" class="s0" d="m433.5 420.9l38.7 48.3h-58.2l-14.3-17.9-32.4-40.6-44.3-55.4h58.1l8.7 10.9c0.8-5.1 1.2-10.5 1.2-16 0-41.5-20.4-73.4-61.9-73.4-41.2 0-62.3 31.9-62.3 73.4 0 41.5 21.1 73.1 62.3 73.1 10.6 0 19.7-2.1 27.6-5.8l31.7 39.7c-17.2 7.7-37.2 12-59.6 12-56.2 0-97.2-26.7-115.6-67.5-3.9 43.5-46.8 67.5-101.5 67.5-66 0-109.5-26.7-110.8-76.9h61.8c2.7 22.9 19.1 32.4 48.6 32.4 20.2 0 40-6.7 40-23.9 0-17.4-18.7-21.6-50.5-28.7l-3.7-0.9c-43.1-9.2-88.6-21.3-88.6-69 0-39.2 28-60.3 68.1-67.3h-75.7v-234.3h270.2l57.7 67.8 57.7-67.8h85.7l-101 117.5 101 116.8h-87.3l-56.2-66.6-56.3 66.6h-85.3 0.1-52.5c38.4 7.3 62.9 30.3 66.8 67.3h-56.3c-2.5-17.5-17.1-27.4-40-27.4-21.6 0-35.8 8.6-35.8 21.3 0 15.8 18.8 19.7 55.6 27.3l0.7 0.1c32 6.8 61.9 15.3 77.2 36-0.2-3.1-0.4-6.2-0.4-9.3 0-68.3 49-119.1 126.3-119.1 77.6 0 126.6 50.8 126.6 119.1 0 27-7.8 51.1-21.9 70.7zm-246.4-364.4h-116.1v39.4h59.1v43.3h-59.1v39.6h116.2v56.1l99.2-116.7-99.3-117.6zm1132 178.5v234.3h-51.7v-21.3h-0.7c-10.3 16.9-25.7 21.3-47.9 21.3-43.4 0-76.5-26.4-76.5-80.8 0-50.9 30.6-87.6 74.3-87.6 23.8 0 37.5 10.9 47.4 24.5h1v-90.4zm-52.8 153.4c0-27.3-11.6-47.1-35.1-47.1-21.6 0-34.2 19.1-34.2 46.5 0 28.4 12.7 46.2 33.6 46.2 22.5 0 35.7-18.8 35.7-45.6zm-685.8-87.5h53.7v168.4h-51.3v-23.8h-1c-12.2 16-28 23.8-51.4 23.8-38.9 0-58.3-23.5-58.3-60.2v-108.2h53.3v98.1c0 24.5 17.5 29.6 28.6 29.6 11 0 26.5-5.1 26.5-29.6zm228.8 58.9v80.9c0 12.8 4.4 23.7 9 26.4v2.2h-52.1c-2.7-3.5-7.4-13.3-8.7-21.4h-0.7c-9.9 13.4-24.6 21.4-50 21.4-33.7 0-57.9-16.7-57.9-48.4 0-35.4 29.7-46.1 64.7-50.4 31.7-3.8 42.9-6.9 42.9-17.9 0-10.3-7-17.2-23.1-17.2-17.1 0-25.7 7.2-27.4 20.7h-49.5c1.4-29.8 25.4-55.2 76.6-55.2 25.4 0 42.5 4.3 54.8 13.1 14.4 10.1 21.4 25.8 21.4 45.8zm-85.4 77.5c20.1 0 33.9-11.6 33.9-28.9v-19.1c-6.8 3.4-16.8 6-27.7 8.5-20.7 4.4-29.3 9.4-29.3 21.6 0 12.8 9.9 17.9 23.1 17.9zm208.9-136.4c5 0 8.3 0.3 10.7 1.2v44.4h-1.3c-33.4-4.4-54.7 11.1-54.7 46.3v76.5h-54.5v-168.4h52.1v27.9h1c12-19.4 26-27.9 46.7-27.9zm106.1 0c24.4 0 43.8 7.5 58.5 20 20.5 17.6 30.5 45.4 30.2 78h-123.2c3.4 21.6 16.1 35.1 38.5 35.1 14.4 0 23.8-6 28.5-16h53.2c-3.7 14.4-13.7 28.1-28.8 37.8-14.4 9.4-33.8 13.5-55.5 13.5-56.6 0-89.4-35.4-89.4-83.9 0-47.9 35.8-84.5 88-84.5zm0.9 36.3c-20.7 0-31.4 12.2-35.1 31.3h67.6c-2-19-14.7-31.3-32.5-31.3z"></path></g></g></svg>