<svg width="1381" height="327" viewBox="0 0 1381 327" fill="none" xmlns="http://www.w3.org/2000/svg">
<path d="M166.682 150.797L149.822 179.894H183.542L166.682 150.797Z" fill="white"/>
<path d="M310.26 233.997C320.594 212.514 326.305 188.855 326.305 163.565C326.305 73.5548 253.426 0.675781 163.143 0.675781H162.871L281.707 207.075L292.313 225.295H101.958L112.563 206.803H260.224L142.476 1.76378C62.2549 12.0968 0.253906 80.3528 0.253906 163.293C0.253906 195.654 9.7719 225.839 25.8159 251.129L140.573 52.3438L151.178 33.8518L246.084 198.101H224.873L151.178 70.8348L37.7809 267.445C67.6939 303.612 112.835 326.455 163.415 326.455C220.522 326.455 271.102 296.814 300.199 252.216H56.0009L61.1669 242.971L151.178 86.8798L161.784 105.371L87.8169 233.997H310.26ZM166.406 113.801L204.477 179.881L215.083 198.373H175.108H171.029H162.056H160.424H139.213H138.941H118.002L166.406 113.801Z" fill="white"/>
<path d="M1343.25 317.518C1325.64 317.518 1312.9 311.363 1304.46 302.345L1313.76 289.462C1320.34 296.476 1330.65 302.631 1343.96 302.631C1357.71 302.631 1363.14 295.903 1363.14 289.605C1363.14 269.564 1307.46 282.018 1307.46 246.804C1307.46 231.058 1321.35 218.891 1342.25 218.891C1357.13 218.891 1369.16 223.615 1378.03 232.203L1368.44 244.657C1361 237.213 1350.83 233.778 1340.81 233.778C1330.94 233.778 1324.64 238.502 1324.64 245.659C1324.64 263.409 1380.18 252.387 1380.18 288.03C1380.18 303.919 1369.01 317.518 1343.25 317.518Z" fill="white"/>
<path d="M1284.6 315.799H1268.42L1218.61 247.661V315.799H1201.86V220.321H1219.04L1267.85 286.597V220.321H1284.6V315.799Z" fill="white"/>
<path d="M1131.2 317.517C1102.57 317.517 1082.38 296.618 1082.38 268.132C1082.38 239.646 1102.57 218.746 1131.2 218.746C1159.82 218.746 1180.01 239.646 1180.01 268.132C1180.01 296.618 1159.82 317.517 1131.2 317.517ZM1131.2 302.63C1150.38 302.63 1162.83 287.743 1162.83 268.132C1162.83 248.377 1150.38 233.633 1131.2 233.633C1111.87 233.633 1099.56 248.377 1099.56 268.132C1099.56 287.743 1111.87 302.63 1131.2 302.63Z" fill="white"/>
<path d="M1060.65 315.799H1043.91V220.321H1060.65V315.799Z" fill="white"/>
<path d="M995.07 315.799H978.32V235.065H949.41V220.321H1023.99V235.065H995.07V315.799Z" fill="white"/>
<path d="M948.78 315.799H929.74L922.72 297.476H878.92L871.91 315.799H852.87L890.37 220.321H911.27L948.78 315.799ZM918 282.732L900.82 237.212L883.65 282.732H918Z" fill="white"/>
<path d="M841.14 315.799H821.816L800.63 280.155H784.025V315.799H767.277V220.321H809.219C828.114 220.321 840.42 232.631 840.42 250.238C840.42 267.272 829.259 276.434 817.808 278.295L841.14 315.799ZM806.929 265.411C816.376 265.411 823.247 259.399 823.247 250.238C823.247 241.077 816.376 235.065 806.929 235.065H784.025V265.411H806.929Z" fill="white"/>
<path d="M704.751 317.66C677.124 317.66 654.65 298.049 654.65 268.132C654.65 238.214 677.124 218.746 704.751 218.746C723.36 218.746 735.528 227.621 743.258 238.644L729.516 246.373C724.506 239.216 715.487 233.633 704.751 233.633C685.856 233.633 671.828 248.091 671.828 268.132C671.828 288.172 685.856 302.773 704.751 302.773C714.485 302.773 723.074 298.192 727.368 294.184V279.297H698.882V264.553H744.116V300.339C734.669 310.789 721.356 317.66 704.751 317.66Z" fill="white"/>
<path d="M632.922 315.799H616.174V220.321H632.922V315.799Z" fill="white"/>
<path d="M590.128 315.799H573.38V244.942L544.035 315.799H536.878L507.676 244.942V315.799H490.928V220.321H514.547L540.456 283.161L566.509 220.321H590.128V315.799Z" fill="white"/>
<path d="M480.766 95.2637C480.766 41.6927 521.556 7.97266 571.592 7.97266C609.119 7.97266 631.69 27.8237 643.383 49.0347L607.216 68.0707C600.961 56.9207 588.18 46.5877 571.864 46.5877C544.399 46.5877 525.091 67.7986 525.091 95.5356C525.091 123.002 544.399 144.484 571.864 144.484C584.101 144.484 596.882 139.318 602.865 134.423V121.37H565.066V83.2987H646.102V150.467C627.883 170.318 603.68 183.371 571.864 183.371C521.556 182.555 480.766 148.835 480.766 95.2637Z" fill="white"/>
<path d="M785.604 179.745L777.174 155.542H711.093L702.663 179.745H653.715L716.804 11.145H771.191L834.55 179.745H785.604ZM743.997 54.111L722.515 117.743H765.208L743.997 54.111Z" fill="white"/>
<path d="M849.51 179.569V10.9688H933.54C971.33 10.9688 992 36.5308 992 67.2598C992 97.7157 971.33 123.278 933.54 123.278H892.75V179.841H849.51V179.569ZM947.95 66.9877C947.95 55.2937 939.52 48.7677 927.83 48.7677H892.75V84.9348H927.83C939.25 84.9348 947.95 78.4087 947.95 66.9877Z" fill="white"/>
<path d="M408.702 0.539062H402.176V326.59H408.702V0.539062Z" fill="white"/>
</svg>
